<svg id="Layer_1" data-name="Layer 1" xmlns="http://www.w3.org/2000/svg" viewBox="0 0 415.46 92.7"><defs><style>.cls-1{font-size:60.81px;fill:#fff;font-family:Waxe;}.cls-2{fill:#19a83f;}.cls-3{fill:#18b63f;}.cls-4{fill:#14812e;}.cls-5{fill:#26d258;}.cls-6{fill:#28ca5b;}.cls-7{fill:#1abe39;}.cls-8{fill:#1b9a3f;}</style></defs><title>Logo</title><text class="cls-1" transform="translate(88.53 69.83)">ay Portfolio</text><path class="cls-2" d="M36.18,27l-8-13.94A36.19,36.19,0,0,0,10,44.41H26.12A20.12,20.12,0,0,1,36.18,27Z"/><path class="cls-3" d="M26.12,44.41H10a36.19,36.19,0,0,0,18.1,31.36l8.05-13.94A20.1,20.1,0,0,1,26.12,44.41Z"/><path class="cls-4" d="M46.24,24.3a20,20,0,0,1,10,2.69l8.05-13.94a36.22,36.22,0,0,0-36.21,0L36.18,27A20,20,0,0,1,46.24,24.3Z"/><path class="cls-3" d="M64.34,13.05,56.29,27A20.12,20.12,0,0,1,66.35,44.41H82.44A36.19,36.19,0,0,0,64.34,13.05Z"/><path class="cls-2" d="M56.29,61.83l8.05,13.94a36.19,36.19,0,0,0,18.1-31.36H66.35A20.1,20.1,0,0,1,56.29,61.83Z"/><path class="cls-5" d="M33.12,44.41h-7A20.1,20.1,0,0,0,36.18,61.83l3.5-6.06A13.11,13.11,0,0,1,33.12,44.41Z"/><path class="cls-6" d="M39.68,33.06,36.18,27A20.12,20.12,0,0,0,26.12,44.41h7A13.1,13.1,0,0,1,39.68,33.06Z"/><path class="cls-7" d="M36.18,27l3.5,6.07a13.09,13.09,0,0,1,13.11,0L56.29,27a20.14,20.14,0,0,0-20.11,0Z"/><path class="cls-5" d="M59.35,44.41h7A20.12,20.12,0,0,0,56.29,27l-3.5,6.07A13.1,13.1,0,0,1,59.35,44.41Z"/><path class="cls-6" d="M52.79,55.77l3.5,6.06A20.1,20.1,0,0,0,66.35,44.41h-7A13.11,13.11,0,0,1,52.79,55.77Z"/><path class="cls-8" d="M46.24,44.41l6.55-11.35a13.09,13.09,0,0,0-13.11,0l6.56,11.35Z"/></svg>